<svg id="Layer_1" data-name="Layer 1" xmlns="http://www.w3.org/2000/svg" viewBox="0 0 627.58 184.28"><defs><style>.cls-1{fill:#fccfb4;}.cls-2{fill:#f16a55;}.cls-3{fill:#ef6a55;}.cls-4{fill:#161616;}</style></defs><title>Logo</title><path d="M118.34,42.58a2,2,0,0,0-.33-.37q-1.82.43-3.6,1a3,3,0,0,0-.53.19,5.23,5.23,0,0,0-.72,1.46c0,.1-.07.2-.1.29,0,1.7,0,3.41,0,5.2.55-1,1.11-1.91,1.65-2.88,1-1.74,1.9-3.51,4-4.4,0,0,0-.08.08-.15C118.63,42.78,118.43,42.72,118.34,42.58Z"/><path class="cls-1" d="M159.07,128.53c-.49,3.53-2.54,9.8-10.82,13.15l-.15,0a31,31,0,0,1-7.22,1.7,32.44,32.44,0,0,1-13.29-.79,28.3,28.3,0,0,1-6.48-2.92h0c-5.09-4-5.88-7.51-5.88-7.51l-.1-.16c-.22-.7-.43-1.41-.61-2.11-.63-2.42-1.25-4.88-1.87-7.31,1,1.48,2,3,2.94,4.57a22.4,22.4,0,0,0,10.94,9.68,23.94,23.94,0,0,0,12.36,1.8,33.55,33.55,0,0,0,11.17-3.38A31.25,31.25,0,0,0,159.07,128.53Z"/><path class="cls-2" d="M157.2,46.48c-.11,1.36,0,2.73,0,4.1a57.76,57.76,0,0,1-2.09,15.51,94.05,94.05,0,0,1-3.39,10.73c-3.15,7.65-7.59,14.61-14.34,20a44.22,44.22,0,0,1-17.54,8.51A42.6,42.6,0,0,1,109,106.6a.51.51,0,0,1-.16-1,32.36,32.36,0,0,0,12.47-7.76,42.76,42.76,0,0,0,7.91-11,79.32,79.32,0,0,0,6.58-19.57c.61-2.86.7-5.8,1.05-8.7.66-5.57.36-11.17.44-16.75,0-1.24.3-1.48,1.56-1.27a90.29,90.29,0,0,1,15.9,3.54c.27.1.56.15.84.23A1.87,1.87,0,0,1,157.2,46.48Z"/><path class="cls-3" d="M118.78,42.88c0,.07,0,.13-.08.14-2.06.9-3,2.66-4,4.41-.54,1-1.1,1.92-1.65,2.88,0-1.79,0-3.5,0-5.2,0-.09.07-.19.1-.29a5.23,5.23,0,0,1,.72-1.46,3,3,0,0,1,.53-.19q1.78-.53,3.6-1a2.46,2.46,0,0,1,.33.37A1.42,1.42,0,0,0,118.78,42.88Z"/><path class="cls-2" d="M136.62,135.29c-.36,0-.73,0-1.1,0-6-.39-11.06-2.43-14.58-7.13-1.55-2.06-2.87-4.27-4.33-6.39a50.57,50.57,0,0,0-5-6.35,5.83,5.83,0,0,1-1.47-2.64c-.24-.94-.47-1.87-.71-2.78a.29.29,0,0,1,.34-.34,24.88,24.88,0,0,1,3.39.74,37.21,37.21,0,0,1,19.62,14,27.57,27.57,0,0,1,4.69,9.16c0,.13.14.25.17.38C137.89,134.93,137.66,135.22,136.62,135.29Z"/><path class="cls-2" d="M133.3,54.58A79.06,79.06,0,0,1,129,77.77a49.51,49.51,0,0,1-7.93,14.71,30.06,30.06,0,0,1-9.42,7.85,36.24,36.24,0,0,1-3.88,1.74.24.24,0,0,1-.32-.15c-.24-1-.48-1.9-.71-2.84a10.65,10.65,0,0,1,.68-7.09c.24-.55.48-1.11.71-1.67a67.44,67.44,0,0,0,3.49-11.56c.53-2.66.62-5.4,1-8.08a46.4,46.4,0,0,0,.4-8.24c0-.86,0-1.69,0-2.49s0-1.76,0-2.58V52.88c0-.87,0-1.71,0-2.53a.08.08,0,0,1,0-.07l1.63-2.85c1-1.75,1.9-3.51,4-4.41h0a.13.13,0,0,0,0-.19.94.94,0,0,1-.33-.24l-.16-.2a.14.14,0,0,1,.07-.23l1.25-.28a45,45,0,0,1,6.88-.95c1.67-.09,3.33-.31,5-.37,2-.06,2,0,2,1.73C133.36,46.38,133.52,50.49,133.3,54.58Z"/><path class="cls-2" d="M113.88,43.36a5.23,5.23,0,0,0-.72,1.46c0,.1-.07.2-.1.29a1.7,1.7,0,0,0,0-.22A1.44,1.44,0,0,1,113.88,43.36Z"/><path d="M118.34,42.58a2.46,2.46,0,0,0-.33-.37,2.16,2.16,0,0,0-2.09-.24,3.61,3.61,0,0,0-2,1.39,5.23,5.23,0,0,0-.72,1.46c0,.1-.07.2-.1.29,0,1.7,0,3.41,0,5.2.55-1,1.11-1.92,1.65-2.88,1-1.75,1.9-3.51,4-4.41,0,0,0-.07.08-.14A1.42,1.42,0,0,1,118.34,42.58Z"/><path class="cls-4" d="M114.42,134.13a.54.54,0,0,0,0-.21c-.37-1.23-.79-2.46-1.11-3.71-1.23-4.75-2.42-9.5-3.62-14.26q-3.39-13.44-6.75-26.88a1.67,1.67,0,0,1,.06-.94c.75-2.24,1.53-4.46,2.27-6.7.1-.29.15-.79,0-.91a2.08,2.08,0,0,0-1.21-.33c-.44,0-.87.31-1.32.35a25.12,25.12,0,0,1-2.74.12,1,1,0,0,1-.73-.41c-.54-.8-1-1.66-1.51-2.45a3.47,3.47,0,0,1-.44-3.15c1-3.48,1.9-7,2.82-10.48.16-.61.25-1.24.35-1.86a16.08,16.08,0,0,1,3.89,3.18h0a5.83,5.83,0,0,0,3.71-.55h0l.24-.12c1.58-.82,3.19-1.6,4.79-2.38,0-.86,0-1.69,0-2.49-.35.11-.71.2-1.09.28-1.73.33-3.46.7-5.19,1a3.57,3.57,0,0,1-1.22,0l-.54-.11-1.23-1.37,0,0-.72-.79c.58-.14,1-.27,1.52-.36,2.42-.46,4.57-1.25,5.78-3.5.88-1.61,1.81-3.2,2.73-4.79,0-1.79,0-3.5,0-5.2a8.67,8.67,0,0,1-2.27,3.38c-1.39,1.32-2.75,2.67-4.14,4a3.79,3.79,0,0,1-1.13.71,14,14,0,0,1-6.29.61c-.69,0-1.38-.14-2.23-.23a2.75,2.75,0,0,1,.42-.35c.68-.2,1.37-.37,2-.6.3-.11.73-.31.79-.53a4.37,4.37,0,0,0,.13-1.83.61.61,0,0,1,.34-.78c.37-.21.33-.48.14-.82a16.28,16.28,0,0,0-.87-1.78c-.65-.93-.26-1.55.45-2.24s.61-1,.22-1.5a22.32,22.32,0,0,1-2.36.1c-1.6-.12-3.16-.74-4.81-.19a4,4,0,0,0-3.07,3,4.6,4.6,0,0,0,1.27,4,15.86,15.86,0,0,1,1.06,1.42c.45.71.36,1.1-.3,1.63-.36.28-.72.56-1.11.81a8.72,8.72,0,0,0-4.13,6.73,52.33,52.33,0,0,1-1.89,8.91c-.53,1.73-1,3.49-1.47,5.27l1.34.3c-.29.25-.78.46-.82.74-.3,1.75-.54,3.5-.71,5.26-.1,1.08,0,2.18,0,3.26-.17,2.37-.36,4.74-.65,7.1a14.44,14.44,0,0,1-.87,3.74,36,36,0,0,0-2.2,6.78c-.47,2.39-.78,4.81-1.22,7.21a3.08,3.08,0,0,0,.23,2.41,1.42,1.42,0,0,1,0,.94c-.19,1-.79,2-.26,3.09,0,.06,0,.17-.07.26-.34,1.1-.67,2.2-1.05,3.29Q75,126.5,72.46,133.76c-.14.39-.23.69.23,1a1.69,1.69,0,0,0,2.57-.38,8.2,8.2,0,0,0,.6-1.4c.8-2.26,1.58-4.53,2.37-6.79l9.12.77c0,.15,0,.3-.09.45-.88,3-1.77,6.06-2.65,9.1-.21.74.08,1.14.91,1.22a2.29,2.29,0,0,0,.94-.1,2.75,2.75,0,0,0,1.73-2.16q3.09-10.24,6.16-20.48c.46-1.54,1-3.07,1.46-4.6l.15,0c.07.43.12.86.2,1.29,1,6,2,12,3.11,18a27.85,27.85,0,0,0,.76,3.22c.21.71.66.81,1.36.48a6.08,6.08,0,0,1,1-.23v-2.12h.42c2.09.27,4.16.66,6.25.76a2.57,2.57,0,0,1,2.81,2.33c.31,1.45.4,1.3,2,.93C114.69,134.88,114.38,134.5,114.42,134.13Zm-26.14-9.36-9.72-.66c.44-1.29.83-2.49,1.25-3.67s.79-2.08,1.14-3.13a.75.75,0,0,1,.91-.56c1.33.12,2.66.21,4,.29l4.8.28Zm4.58-14.18c-.47,1.44-1,2.88-1.43,4.33-.13.4-.33.5-.75.43s-1-.11-1.52-.17c.31-.74-.15-1.05-.8-1.33-1-.43-2-.88-3-1.39a1.16,1.16,0,0,1-.55-1.51c.26-.85.48-1.72.73-2.6l7.76.48C93.19,109.42,93.05,110,92.86,110.59Zm0-17.69c-1.24,3.51-2.4,7-4.58,10.2a1.46,1.46,0,0,0,0,1.8,12.13,12.13,0,0,1,.71,1.51l-3.13-.19.77-2.9a44,44,0,0,1,2.52-7A35.44,35.44,0,0,0,90.9,90c.27-1.14.39-2.31.58-3.47.11-.62.2-1.23-.46-1.68-.14-.09-.19-.29-.28-.44l.11-.07,3.88,2.89C94.06,89.23,93.5,91.08,92.85,92.9ZM95,103.52c-.72-.54-.35-1.55,1.08-2.9C95.67,101.68,95.33,102.59,95,103.52Zm7.25-21c-.2.65-.4,1.28-.6,1.92h-.17c-.22-.61-.43-1.23-.67-1.93Zm-.75,9.87h.13c.72,3,1.43,6,2.17,9.15H98.4Zm-2,24.38c-.54-2.59-1-5.19-1.54-7.79-.18-1-.36-1.94-.52-2.92a2.54,2.54,0,0,1,0-.82c.23-1.28.26-1.3,1.69-1.4s3.07-.17,4.6-.27c.39,0,.59.08.68.44q1.69,6.84,3.41,13.68h0a.43.43,0,0,1,0,0h0a.06.06,0,0,0,0,0c-1.44,0-2.86,0-4.28,0a30.3,30.3,0,0,1-3.3-.38A1,1,0,0,1,99.45,116.77ZM107.82,130c-1.81-.22-3.61-.49-5.43-.67a.86.86,0,0,1-.88-.8c-.36-2-.71-4-1.06-6l-.58-3.25,8.3.55L111,130.27C109.88,130.16,108.85,130.07,107.82,130Z"/><path class="cls-4" d="M205.81,94.75a11.22,11.22,0,0,1-4.3,8.34q-3.88,3-10.24,3-6.95,0-10.93-4.26t-4-11.67v-2a18.07,18.07,0,0,1,1.84-8.34,12.93,12.93,0,0,1,5.24-5.54,15.82,15.82,0,0,1,7.93-1.93q6.25,0,10.08,3A12.07,12.07,0,0,1,205.86,84h-7.44a6.55,6.55,0,0,0-1.95-4.62,7.74,7.74,0,0,0-5.1-1.43,6.55,6.55,0,0,0-5.57,2.43q-1.85,2.41-1.9,7.52v2.48q0,5.32,1.78,7.78c1.18,1.64,3,2.46,5.59,2.46a7.87,7.87,0,0,0,5.15-1.43,6.22,6.22,0,0,0,2-4.43Z"/><path class="cls-4" d="M238,72.84V94.47a10.56,10.56,0,0,1-3.71,8.53q-3.71,3.14-10.13,3.14t-10-3a10.44,10.44,0,0,1-3.8-8.37V72.84h7.45V94.52c0,2.15.56,3.72,1.7,4.7a6.9,6.9,0,0,0,4.7,1.48q6.27,0,6.38-6V72.84Z"/><path class="cls-4" d="M257.52,93.66h-5.93v12h-7.44V72.84h13.42q6.4,0,9.88,2.6a8.62,8.62,0,0,1,3.47,7.33,9.36,9.36,0,0,1-1.6,5.6A10.76,10.76,0,0,1,264.47,92l7.81,13.42v.32h-8Zm-5.93-5.48h6a6.52,6.52,0,0,0,4.34-1.3,4.42,4.42,0,0,0,1.54-3.57A4.75,4.75,0,0,0,262,79.65a6.48,6.48,0,0,0-4.46-1.33h-6Z"/><path class="cls-4" d="M302.53,78.32H291.46v27.37H284V78.32H273.1V72.84h29.43Z"/><path class="cls-4" d="M324.19,98.92H311.14l-2.48,6.77h-7.92l13.45-32.85h6.9l13.52,32.85H326.7Zm-11-5.48h9l-4.54-12.3Z"/><path class="cls-4" d="M345.9,105.69h-7.44V72.84h7.44Z"/><path class="cls-4" d="M382.18,105.69h-7.44l-14.5-21.61v21.61H352.8V72.84h7.44L374.76,94.5V72.84h7.42Z"/><path class="cls-4" d="M420.07,97.07a3.38,3.38,0,0,0-1.49-2.95A20.69,20.69,0,0,0,413.22,92a41.37,41.37,0,0,1-6.13-2.24q-6.15-3-6.15-8.15a7.48,7.48,0,0,1,1.65-4.75,10.78,10.78,0,0,1,4.74-3.26,19.45,19.45,0,0,1,6.93-1.17,17.65,17.65,0,0,1,6.9,1.28,10.84,10.84,0,0,1,4.7,3.59,8.79,8.79,0,0,1,1.68,5.28h-7.45A4.26,4.26,0,0,0,418.53,79a6.89,6.89,0,0,0-4.39-1.25,7.4,7.4,0,0,0-4.25,1,3.23,3.23,0,0,0-1.51,2.76,3.14,3.14,0,0,0,1.77,2.69,21.31,21.31,0,0,0,5.23,2q6.35,1.74,9.25,4.31a8.19,8.19,0,0,1,2.91,6.4,7.67,7.67,0,0,1-3.55,6.69q-3.56,2.43-9.56,2.43a20.15,20.15,0,0,1-7.59-1.39,11.91,11.91,0,0,1-5.22-3.8,9.12,9.12,0,0,1-1.8-5.6h7.47q0,5.45,7.14,5.44a7.54,7.54,0,0,0,4.15-1A3.12,3.12,0,0,0,420.07,97.07Z"/><path class="cls-4" d="M454.31,91.45H440v8.8h16.77v5.44H432.57V72.84h24.17v5.48H440v7.83h14.29Z"/><path class="cls-4" d="M488.85,78.32H477.78v27.37h-7.44V78.32H459.42V72.84h29.43Z"/><path class="cls-4" d="M520.43,72.84V94.47a10.56,10.56,0,0,1-3.71,8.53q-3.71,3.14-10.13,3.14t-10-3a10.44,10.44,0,0,1-3.8-8.37V72.84h7.45V94.52c0,2.15.56,3.72,1.7,4.7a6.9,6.9,0,0,0,4.7,1.48q6.27,0,6.37-6V72.84Z"/><path class="cls-4" d="M534,94.11v11.58h-7.44V72.84h14.09a17.59,17.59,0,0,1,7.16,1.36A10.68,10.68,0,0,1,552.54,78a10,10,0,0,1,1.66,5.68,9.09,9.09,0,0,1-3.63,7.61q-3.65,2.79-10.06,2.78Zm0-5.48h6.65a7,7,0,0,0,4.5-1.26,4.37,4.37,0,0,0,1.55-3.61,5.14,5.14,0,0,0-1.56-3.9,6.17,6.17,0,0,0-4.32-1.54H534Z"/><path class="cls-4" d="M232.23,114.1h-2.81V122h1V118.9h1.79a2.88,2.88,0,0,0,2-.62,2.22,2.22,0,0,0,.7-1.77,2.3,2.3,0,0,0-.71-1.75A2.77,2.77,0,0,0,232.23,114.1Zm1.23,3.56a1.75,1.75,0,0,1-1.23.39h-1.8V115h1.86a1.63,1.63,0,0,1,1.17.44,1.5,1.5,0,0,1,.43,1.13A1.46,1.46,0,0,1,233.46,117.66Z"/><polygon class="cls-4" points="239.86 118.34 243.16 118.34 243.16 117.49 239.86 117.49 239.86 114.95 243.64 114.95 243.64 114.11 238.85 114.11 238.85 121.98 243.69 121.98 243.69 121.13 239.86 121.13 239.86 118.34"/><path class="cls-4" d="M252.41,117.76a2.17,2.17,0,0,0,.39-1.29,2.21,2.21,0,0,0-.69-1.76,3,3,0,0,0-2-.61h-2.52V122h1V118.8h1.78l1.66,3.18h1.07v-.06l-1.79-3.35A2.27,2.27,0,0,0,252.41,117.76Zm-2.25.19h-1.54v-3h1.53a1.79,1.79,0,0,1,1.22.4,1.45,1.45,0,0,1,.42,1.12,1.37,1.37,0,0,1-.44,1.07A1.7,1.7,0,0,1,250.16,118Z"/><polygon class="cls-4" points="256.88 121.98 257.88 121.98 257.88 118.5 261.08 118.5 261.08 117.65 257.88 117.65 257.88 114.95 261.59 114.95 261.59 114.11 256.88 114.11 256.88 121.98"/><polygon class="cls-4" points="266.48 118.34 269.77 118.34 269.77 117.49 266.48 117.49 266.48 114.95 270.25 114.95 270.25 114.11 265.47 114.11 265.47 121.98 270.31 121.98 270.31 121.13 266.48 121.13 266.48 118.34"/><path class="cls-4" d="M275.52,115.58a1.78,1.78,0,0,1,1.51-.73,1.67,1.67,0,0,1,1.22.42,2.33,2.33,0,0,1,.57,1.37h1a3,3,0,0,0-.85-1.94,2.7,2.7,0,0,0-2-.7,2.91,2.91,0,0,0-1.61.44,2.94,2.94,0,0,0-1.07,1.28,4.68,4.68,0,0,0-.38,1.93v.76a4.14,4.14,0,0,0,.81,2.68,2.63,2.63,0,0,0,2.16,1,2.89,2.89,0,0,0,2-.68,3,3,0,0,0,.89-1.93h-1a2.27,2.27,0,0,1-.59,1.37,1.91,1.91,0,0,1-1.29.39,1.63,1.63,0,0,1-1.44-.76,3.5,3.5,0,0,1-.52-2v-.76A3.5,3.5,0,0,1,275.52,115.58Z"/><polygon class="cls-4" points="283.1 114.95 285.54 114.95 285.54 121.98 286.53 121.98 286.53 114.95 288.98 114.95 288.98 114.11 283.1 114.11 283.1 114.95"/><path class="cls-4" d="M299.2,115.58a1.75,1.75,0,0,1,1.5-.73,1.67,1.67,0,0,1,1.22.42,2.33,2.33,0,0,1,.57,1.37h1a3,3,0,0,0-.85-1.94,2.7,2.7,0,0,0-1.95-.7,2.91,2.91,0,0,0-1.61.44,2.94,2.94,0,0,0-1.07,1.28,4.68,4.68,0,0,0-.38,1.93v.76a4.14,4.14,0,0,0,.81,2.68,2.66,2.66,0,0,0,2.16,1,2.69,2.69,0,0,0,2.89-2.61h-1a2.22,2.22,0,0,1-.59,1.37,1.91,1.91,0,0,1-1.29.39,1.63,1.63,0,0,1-1.44-.76,3.5,3.5,0,0,1-.52-2v-.76A3.43,3.43,0,0,1,299.2,115.58Z"/><path class="cls-4" d="M311.89,119.44a1.85,1.85,0,0,1-.45,1.33,2,2,0,0,1-2.6,0,1.86,1.86,0,0,1-.45-1.33V114.1h-1v5.37a2.52,2.52,0,0,0,.76,1.92,2.75,2.75,0,0,0,2,.7h.26a2.68,2.68,0,0,0,1.83-.8,2.57,2.57,0,0,0,.67-1.82V114.1h-1Z"/><path class="cls-4" d="M322,117.76a2.46,2.46,0,0,0-.31-3.05,2.92,2.92,0,0,0-2-.61h-2.52V122h1V118.8H320L321.6,122h1.08v-.06l-1.79-3.35A2.27,2.27,0,0,0,322,117.76Zm-2.25.19h-1.55v-3h1.54a1.79,1.79,0,0,1,1.22.4,1.45,1.45,0,0,1,.42,1.12,1.37,1.37,0,0,1-.44,1.07A1.72,1.72,0,0,1,319.71,118Z"/><polygon class="cls-4" points="325.38 114.95 327.82 114.95 327.82 121.98 328.82 121.98 328.82 114.95 331.27 114.95 331.27 114.11 325.38 114.11 325.38 114.95"/><path class="cls-4" d="M336.83,114.1,333.92,122h1l.71-2.06h3.19l.73,2.06h1l-2.91-7.88Zm-.85,5,1.29-3.68,1.29,3.68Z"/><rect class="cls-4" x="344.39" y="114.1" width="1" height="7.88"/><polygon class="cls-4" points="354.75 120.2 350.91 114.11 349.9 114.11 349.9 121.98 350.91 121.98 350.91 115.91 354.74 121.98 355.75 121.98 355.75 114.11 354.75 114.11 354.75 120.2"/><path class="cls-4" d="M364.22,118.16a5.9,5.9,0,0,0-1.48-.61,3.75,3.75,0,0,1-1.34-.61,1,1,0,0,1-.4-.81,1.15,1.15,0,0,1,.42-.95,1.79,1.79,0,0,1,1.15-.33,1.7,1.7,0,0,1,1.24.41,1.42,1.42,0,0,1,.44,1.12h1a2.2,2.2,0,0,0-.34-1.2,2.29,2.29,0,0,0-.95-.87,3,3,0,0,0-1.4-.31,2.74,2.74,0,0,0-1.86.61,1.9,1.9,0,0,0-.72,1.53,1.83,1.83,0,0,0,.59,1.39,4.7,4.7,0,0,0,1.87.94,4.44,4.44,0,0,1,1.43.63,1.08,1.08,0,0,1,.39.89,1.1,1.1,0,0,1-.43.92,1.92,1.92,0,0,1-1.21.33,2.15,2.15,0,0,1-1.37-.41,1.4,1.4,0,0,1-.5-1.13h-1a2.1,2.1,0,0,0,.37,1.23,2.46,2.46,0,0,0,1,.85,3.46,3.46,0,0,0,1.47.31,3,3,0,0,0,1.93-.58,1.85,1.85,0,0,0,.72-1.53,2,2,0,0,0-.26-1A2.22,2.22,0,0,0,364.22,118.16Z"/><path class="cls-4" d="M369,121.7a2.77,2.77,0,0,1-.51,1.46l.54.39a2.67,2.67,0,0,0,.91-2v-.78H369Z"/><path class="cls-4" d="M382.15,114.1h-2.81V122h1V118.9h1.8a2.88,2.88,0,0,0,2-.62,2.56,2.56,0,0,0,0-3.52A2.74,2.74,0,0,0,382.15,114.1Zm1.23,3.56a1.78,1.78,0,0,1-1.23.39h-1.81V115h1.86a1.68,1.68,0,0,1,1.18.44,1.5,1.5,0,0,1,.43,1.13A1.46,1.46,0,0,1,383.38,117.66Z"/><polygon class="cls-4" points="389.77 118.34 393.07 118.34 393.07 117.49 389.77 117.49 389.77 114.95 393.55 114.95 393.55 114.11 388.77 114.11 388.77 121.98 393.6 121.98 393.6 121.13 389.77 121.13 389.77 118.34"/><path class="cls-4" d="M402.33,117.76a2.16,2.16,0,0,0,.38-1.29,2.21,2.21,0,0,0-.69-1.76,2.93,2.93,0,0,0-2-.61h-2.52V122h1V118.8h1.79L402,122h1.08v-.06l-1.79-3.35A2.32,2.32,0,0,0,402.33,117.76Zm-2.26.19h-1.54v-3h1.54a1.76,1.76,0,0,1,1.21.4,1.45,1.45,0,0,1,.42,1.12,1.34,1.34,0,0,1-.44,1.07A1.69,1.69,0,0,1,400.07,118Z"/><polygon class="cls-4" points="406.8 121.98 407.8 121.98 407.8 118.5 410.99 118.5 410.99 117.65 407.8 117.65 407.8 114.95 411.51 114.95 411.51 114.11 406.8 114.11 406.8 121.98"/><polygon class="cls-4" points="416.39 118.34 419.69 118.34 419.69 117.49 416.39 117.49 416.39 114.95 420.17 114.95 420.17 114.11 415.39 114.11 415.39 121.98 420.22 121.98 420.22 121.13 416.39 121.13 416.39 118.34"/><path class="cls-4" d="M425.44,115.58a1.77,1.77,0,0,1,1.51-.73,1.69,1.69,0,0,1,1.22.42,2.33,2.33,0,0,1,.57,1.37h1a2.94,2.94,0,0,0-.85-1.94A2.67,2.67,0,0,0,427,114a2.88,2.88,0,0,0-1.61.44,3,3,0,0,0-1.08,1.28,4.68,4.68,0,0,0-.37,1.93v.76a4.14,4.14,0,0,0,.81,2.68,2.63,2.63,0,0,0,2.16,1,2.86,2.86,0,0,0,2-.68,2.9,2.9,0,0,0,.89-1.93h-1a2.22,2.22,0,0,1-.6,1.37,1.88,1.88,0,0,1-1.28.39,1.66,1.66,0,0,1-1.45-.76,3.58,3.58,0,0,1-.52-2v-.76A3.5,3.5,0,0,1,425.44,115.58Z"/><polygon class="cls-4" points="433.01 114.95 435.45 114.95 435.45 121.98 436.45 121.98 436.45 114.95 438.9 114.95 438.9 114.11 433.01 114.11 433.01 114.95"/><path class="cls-4" d="M451.83,118.16a6,6,0,0,0-1.49-.61,3.75,3.75,0,0,1-1.34-.61,1,1,0,0,1-.39-.81,1.15,1.15,0,0,1,.41-.95,1.84,1.84,0,0,1,1.16-.33,1.72,1.72,0,0,1,1.24.41,1.45,1.45,0,0,1,.44,1.12h1a2.29,2.29,0,0,0-.34-1.2,2.35,2.35,0,0,0-.95-.87,3,3,0,0,0-1.4-.31,2.77,2.77,0,0,0-1.87.61,1.9,1.9,0,0,0-.72,1.53,1.87,1.87,0,0,0,.59,1.39,4.75,4.75,0,0,0,1.88.94,4.27,4.27,0,0,1,1.42.63,1.08,1.08,0,0,1,.39.89,1.12,1.12,0,0,1-.42.92,2,2,0,0,1-1.22.33,2.12,2.12,0,0,1-1.36-.41,1.38,1.38,0,0,1-.51-1.13h-1a2.17,2.17,0,0,0,.37,1.23,2.55,2.55,0,0,0,1,.85,3.42,3.42,0,0,0,1.46.31,3,3,0,0,0,1.93-.58,1.85,1.85,0,0,0,.72-1.53,1.94,1.94,0,0,0-.26-1A2.19,2.19,0,0,0,451.83,118.16Z"/><path class="cls-4" d="M459.65,114.1h-2.81V122h1V118.9h1.79a2.88,2.88,0,0,0,2-.62,2.22,2.22,0,0,0,.7-1.77,2.3,2.3,0,0,0-.71-1.75A2.77,2.77,0,0,0,459.65,114.1Zm1.23,3.56a1.75,1.75,0,0,1-1.23.39h-1.8V115h1.86a1.63,1.63,0,0,1,1.17.44,1.5,1.5,0,0,1,.43,1.13A1.46,1.46,0,0,1,460.88,117.66Z"/><path class="cls-4" d="M467.72,114.1,464.81,122h1l.71-2.06h3.19l.73,2.06h1l-2.91-7.88Zm-.85,5,1.29-3.68,1.3,3.68Z"/><path class="cls-4" d="M476.45,115.58a1.75,1.75,0,0,1,1.5-.73,1.67,1.67,0,0,1,1.22.42,2.33,2.33,0,0,1,.57,1.37h1a2.94,2.94,0,0,0-.85-1.94A2.7,2.7,0,0,0,478,114a2.91,2.91,0,0,0-1.61.44,2.94,2.94,0,0,0-1.07,1.28,4.68,4.68,0,0,0-.38,1.93v.76a4.14,4.14,0,0,0,.81,2.68,2.66,2.66,0,0,0,2.16,1,2.69,2.69,0,0,0,2.89-2.61h-1a2.22,2.22,0,0,1-.59,1.37,1.91,1.91,0,0,1-1.29.39,1.63,1.63,0,0,1-1.44-.76,3.5,3.5,0,0,1-.52-2v-.76A3.43,3.43,0,0,1,476.45,115.58Z"/><polygon class="cls-4" points="485.8 118.34 489.1 118.34 489.1 117.49 485.8 117.49 485.8 114.95 489.58 114.95 489.58 114.11 484.8 114.11 484.8 121.98 489.63 121.98 489.63 121.13 485.8 121.13 485.8 118.34"/><path class="cls-4" d="M498.36,118.94a2.27,2.27,0,0,0-.79-.78,6.15,6.15,0,0,0-1.49-.61,3.75,3.75,0,0,1-1.34-.61,1,1,0,0,1-.4-.81,1.15,1.15,0,0,1,.42-.95,1.82,1.82,0,0,1,1.16-.33,1.74,1.74,0,0,1,1.24.41,1.45,1.45,0,0,1,.43,1.12h1a2.28,2.28,0,0,0-.33-1.2,2.38,2.38,0,0,0-1-.87,3,3,0,0,0-1.39-.31,2.77,2.77,0,0,0-1.87.61,1.9,1.9,0,0,0-.72,1.53,1.87,1.87,0,0,0,.59,1.39,4.75,4.75,0,0,0,1.88.94,4.37,4.37,0,0,1,1.42.63,1.08,1.08,0,0,1,.39.89,1.12,1.12,0,0,1-.42.92,2,2,0,0,1-1.22.33,2.12,2.12,0,0,1-1.36-.41,1.38,1.38,0,0,1-.51-1.13h-1a2.1,2.1,0,0,0,.37,1.23,2.43,2.43,0,0,0,1.05.85,3.42,3.42,0,0,0,1.46.31,3,3,0,0,0,1.93-.58,1.85,1.85,0,0,0,.72-1.53A2,2,0,0,0,498.36,118.94Z"/></svg>