<svg id="Layer_1" data-name="Layer 1" xmlns="http://www.w3.org/2000/svg" viewBox="0 0 245.16 154.36"><defs><style>.cls-1{fill:#060486;}.cls-2{fill:#89ad18;}.cls-3{fill:#000574;}.cls-4{fill:#8dab2f;}</style></defs><title>WhatsApp Image 2025-02-21 at 10.23.24 PM</title><path class="cls-1" d="M41.85,51.06,67,30.59,99.89,57.2H111l-22.22-17V25.91H78.26v5L67.14,22.33,23.79,58.16H38.42V77.88S60.13,59.24,93.31,58.22c0,0-26-4.09-48.17,7.31V51.13Z"/><path class="cls-2" d="M34.11,96.62l12,4.09s17.74-34.4,69.79-40.44C115.88,60.27,66.75,57.44,34.11,96.62Z"/><path class="cls-3" d="M91.68,67.72H95.5L93.39,78.37,92.87,81a4.7,4.7,0,0,0-.05.63,2.53,2.53,0,0,0,.81,1.92A3.31,3.31,0,0,0,96,84.3a4.29,4.29,0,0,0,2.29-.55,3.58,3.58,0,0,0,1.4-1.63,18.34,18.34,0,0,0,1-3.68l2.14-10.72h3.82L104.5,78.45A21.78,21.78,0,0,1,103,83.63a7,7,0,0,1-2.66,2.92,8.25,8.25,0,0,1-4.5,1.12,6.85,6.85,0,0,1-5-1.68,5.75,5.75,0,0,1-1.73-4.31,8.58,8.58,0,0,1,.09-1.19c0-.29.18-1.1.45-2.44Z"/><path class="cls-3" d="M110.49,87.34h-3.84l3.9-19.62h8.28a9.67,9.67,0,0,1,3.32.46,3.88,3.88,0,0,1,1.92,1.7,5.7,5.7,0,0,1,.73,3A6,6,0,0,1,123.38,77a6.71,6.71,0,0,1-4.31,2,8,8,0,0,1,1.38,1.84,49,49,0,0,1,2.86,6.5H119.2c-.33-1.11-1-2.83-2-5.18a5.94,5.94,0,0,0-1.68-2.56,3.51,3.51,0,0,0-1.9-.38H112.1Zm2.2-11.07h2a13.68,13.68,0,0,0,4.1-.39,3.26,3.26,0,0,0,1.58-1.21,3.07,3.07,0,0,0,.58-1.74,1.79,1.79,0,0,0-.83-1.61A4.86,4.86,0,0,0,118,71h-4.22Z"/><path class="cls-3" d="M125.35,87.34l3.9-19.62h6.37a20.67,20.67,0,0,1,2.9.14,5.84,5.84,0,0,1,2.32.8,3.92,3.92,0,0,1,1.45,1.6,5,5,0,0,1,.5,2.23,4.71,4.71,0,0,1-.87,2.83,5.25,5.25,0,0,1-2.67,1.81,4.2,4.2,0,0,1,2.25,1.48,3.86,3.86,0,0,1,.81,2.4,6.36,6.36,0,0,1-1,3.35,5.36,5.36,0,0,1-2.63,2.28,12.15,12.15,0,0,1-4.59.7Zm4.46-3.16h3.7a10,10,0,0,0,3.12-.31,2.83,2.83,0,0,0,1.75-2.57,2.1,2.1,0,0,0-.69-1.61,3.35,3.35,0,0,0-2.29-.63h-4.57Zm1.69-8.54h2.92a9.61,9.61,0,0,0,2.84-.29,2.45,2.45,0,0,0,1.3-1A2.69,2.69,0,0,0,139,73a1.84,1.84,0,0,0-.41-1.23,2,2,0,0,0-1.16-.64,15.36,15.36,0,0,0-2-.08h-3Z"/><path class="cls-3" d="M156.38,83H149l-2.24,4.34h-3.94l10.54-19.62h4.26l3,19.62H157Zm-.47-3.26-1.08-7.9-4.5,7.9Z"/><path class="cls-3" d="M177.87,87.34H174.3l-5-13.18-2.62,13.18h-3.57L167,67.72h3.58l5,13.13,2.6-13.13h3.56Z"/><path class="cls-4" d="M57.19,105.88,60,91.6h2.78L60,105.88Z"/><path class="cls-4" d="M73.41,105.88h-2.6l-3.66-9.59-1.91,9.59h-2.6L65.47,91.6h2.61l3.67,9.56,1.9-9.56h2.59Z"/><path class="cls-4" d="M82.15,105.88H79.36L81.72,94h-4l.47-2.39H88.9L88.43,94H84.51Z"/><path class="cls-4" d="M87.82,105.88,90.65,91.6h10L100.23,94H93l-.65,3.24h7l-.47,2.39h-7L91,103.49h7.89l-.48,2.39Z"/><path class="cls-4" d="M103.3,105.88h-2.79l2.84-14.28h6a7,7,0,0,1,2.42.34,2.81,2.81,0,0,1,1.4,1.23,4.23,4.23,0,0,1,.53,2.17,4.41,4.41,0,0,1-1,3,4.84,4.84,0,0,1-3.13,1.46,5.92,5.92,0,0,1,1,1.34,35.39,35.39,0,0,1,2.09,4.73h-3c-.24-.81-.71-2.06-1.42-3.77a4.41,4.41,0,0,0-1.22-1.86,2.45,2.45,0,0,0-1.38-.28h-1.14Zm1.6-8h1.48a9.92,9.92,0,0,0,3-.29,2.37,2.37,0,0,0,1.15-.88,2.18,2.18,0,0,0,.41-1.27,1.3,1.3,0,0,0-.6-1.17,3.57,3.57,0,0,0-1.6-.23h-3.07Z"/><path class="cls-4" d="M114,105.88l2.84-14.28h2.79l-2.83,14.28Z"/><path class="cls-4" d="M120.28,100.28a10.81,10.81,0,0,1,.36-2.67,9.79,9.79,0,0,1,1.43-3.26,7.21,7.21,0,0,1,2.44-2.19,6.94,6.94,0,0,1,3.35-.8A5.33,5.33,0,0,1,131.93,93a6.1,6.1,0,0,1,1.54,4.36,10,10,0,0,1-1,4.37,7.88,7.88,0,0,1-2.74,3.25,7,7,0,0,1-3.91,1.14,5.43,5.43,0,0,1-3.19-.9,5.06,5.06,0,0,1-1.82-2.25A7.13,7.13,0,0,1,120.28,100.28Zm2.75-.06a3.72,3.72,0,0,0,.85,2.47,2.82,2.82,0,0,0,2.24,1,3.52,3.52,0,0,0,2.17-.79,5.65,5.65,0,0,0,1.72-2.37,7.94,7.94,0,0,0,.68-3.1,3.84,3.84,0,0,0-.86-2.65,2.8,2.8,0,0,0-2.19-1,3.84,3.84,0,0,0-3.33,2A8.07,8.07,0,0,0,123,100.22Z"/><path class="cls-4" d="M137,105.88h-2.79L137,91.6h6a7,7,0,0,1,2.42.34,2.79,2.79,0,0,1,1.39,1.23,4.13,4.13,0,0,1,.54,2.17,4.41,4.41,0,0,1-1,3,4.87,4.87,0,0,1-3.14,1.46,5.65,5.65,0,0,1,1,1.34,34.3,34.3,0,0,1,2.08,4.73h-3c-.24-.81-.72-2.06-1.42-3.77a4.41,4.41,0,0,0-1.22-1.86,2.49,2.49,0,0,0-1.39-.28h-1.13Zm1.6-8h1.48a9.84,9.84,0,0,0,3-.29,2.39,2.39,0,0,0,1.16-.88,2.25,2.25,0,0,0,.41-1.27,1.3,1.3,0,0,0-.6-1.17,3.6,3.6,0,0,0-1.6-.23h-3.07Z"/><path class="cls-4" d="M148.24,101.25l2.65-.14a3.19,3.19,0,0,0,.44,1.8,2.74,2.74,0,0,0,2.25.76,3,3,0,0,0,2-.52,1.56,1.56,0,0,0,.61-1.24,1.33,1.33,0,0,0-.5-1.07,8.79,8.79,0,0,0-1.93-1,18.65,18.65,0,0,1-2.3-1.2,3.51,3.51,0,0,1-1.14-1.25,3.68,3.68,0,0,1-.42-1.8,4,4,0,0,1,1.24-3,5,5,0,0,1,3.59-1.19,5.34,5.34,0,0,1,3.7,1.18,4.44,4.44,0,0,1,1.44,3.13l-2.68.13a2.37,2.37,0,0,0-.7-1.57,2.58,2.58,0,0,0-1.78-.54,2.49,2.49,0,0,0-1.65.43,1.35,1.35,0,0,0-.49,1.08,1.29,1.29,0,0,0,.45,1,9,9,0,0,0,2,1.12,11.29,11.29,0,0,1,3,1.72,3.47,3.47,0,0,1,.95,2.51,4.29,4.29,0,0,1-1.42,3.22,5.52,5.52,0,0,1-4,1.34,6.83,6.83,0,0,1-3-.62,3.67,3.67,0,0,1-1.8-1.71A5.45,5.45,0,0,1,148.24,101.25Z"/><path class="cls-4" d="M165.76,105.88l2.83-14.28h3.66c1,0,1.67,0,1.95.05a5.5,5.5,0,0,1,1.5.36,4.43,4.43,0,0,1,1.21.77,4.76,4.76,0,0,1,.93,1.18,6.34,6.34,0,0,1,.61,1.59,8.69,8.69,0,0,1,.21,2,9.53,9.53,0,0,1-.84,4.1,8.13,8.13,0,0,1-2.1,2.84,6.19,6.19,0,0,1-2.51,1.2,11.63,11.63,0,0,1-2.67.22Zm3.24-2.3h1.42a8.94,8.94,0,0,0,2.22-.2,3,3,0,0,0,1.26-.74,6.4,6.4,0,0,0,1.39-2.11,7.68,7.68,0,0,0,.57-3.09,4.48,4.48,0,0,0-.47-2.29,2.3,2.3,0,0,0-1.15-1,5.52,5.52,0,0,0-1.71-.18h-1.62Z"/><path class="cls-4" d="M182.23,91.6H185l-1.53,7.75-.38,1.91a2.6,2.6,0,0,0,0,.46,1.84,1.84,0,0,0,.59,1.4,2.38,2.38,0,0,0,1.7.55,3.13,3.13,0,0,0,1.67-.4,2.61,2.61,0,0,0,1-1.19,13.43,13.43,0,0,0,.73-2.68l1.55-7.8h2.79l-1.55,7.81a15.91,15.91,0,0,1-1.13,3.77,5.11,5.11,0,0,1-1.93,2.12,6,6,0,0,1-3.28.82,5,5,0,0,1-3.62-1.22,4.17,4.17,0,0,1-1.26-3.14,5.54,5.54,0,0,1,.07-.87c0-.2.13-.79.32-1.77Z"/><path class="cls-4" d="M193.05,105.88l2.84-14.28h4.63a16,16,0,0,1,2.11.1,4.28,4.28,0,0,1,1.7.59,2.86,2.86,0,0,1,1,1.16,3.63,3.63,0,0,1,.36,1.62,3.42,3.42,0,0,1-.63,2.06,3.86,3.86,0,0,1-1.94,1.32,3,3,0,0,1,1.63,1.08,2.79,2.79,0,0,1,.59,1.74,4.68,4.68,0,0,1-.69,2.44,4,4,0,0,1-1.92,1.66,8.87,8.87,0,0,1-3.34.51Zm3.25-2.3H199a7.36,7.36,0,0,0,2.27-.23,2.05,2.05,0,0,0,1.27-1.86,1.51,1.51,0,0,0-.5-1.18,2.46,2.46,0,0,0-1.66-.46H197Zm1.23-6.21h2.12a6.8,6.8,0,0,0,2.07-.22,1.7,1.7,0,0,0,.94-.7,1.86,1.86,0,0,0,.31-1,1.31,1.31,0,0,0-.29-.89,1.46,1.46,0,0,0-.84-.47,10.57,10.57,0,0,0-1.47-.06H198.2Z"/><path class="cls-4" d="M215.63,102.72h-5.38l-1.62,3.16h-2.87l7.67-14.28h3.1l2.2,14.28h-2.65Zm-.35-2.37-.78-5.75-3.28,5.75Z"/><path class="cls-4" d="M220.31,105.88l2.84-14.28h2.78l-2.83,14.28Z"/></svg>